<mxfile host="app.diagrams.net" modified="2023-02-24T16:27:27.446Z" agent="5.0 (Macintosh; Intel Mac OS X 10_15_7) AppleWebKit/537.36 (KHTML, like Gecko) Chrome/110.0.0.0 Safari/537.36" etag="FMVWAdWc2jQR209btYlC" version="20.8.23" type="github">
  <diagram name="Page-1" id="vNDUmQ9X8iTSRwNMCsqz">
    <mxGraphModel dx="3349" dy="1131" grid="1" gridSize="10" guides="1" tooltips="1" connect="1" arrows="1" fold="1" page="1" pageScale="1" pageWidth="850" pageHeight="1100" math="0" shadow="0">
      <root>
        <mxCell id="0" />
        <mxCell id="1" parent="0" />
        <mxCell id="nDq_KjHqGvG9ko2mTiTP-20" style="edgeStyle=none;rounded=0;orthogonalLoop=1;jettySize=auto;html=1;entryX=0;entryY=0.5;entryDx=0;entryDy=0;dashed=1;" edge="1" parent="1" source="nDq_KjHqGvG9ko2mTiTP-1" target="nDq_KjHqGvG9ko2mTiTP-12">
          <mxGeometry relative="1" as="geometry" />
        </mxCell>
        <mxCell id="nDq_KjHqGvG9ko2mTiTP-1" value="Production Zone (Security, Cert)" style="rounded=1;whiteSpace=wrap;html=1;fillColor=#f8cecc;strokeColor=#b85450;" vertex="1" parent="1">
          <mxGeometry x="438" y="290" width="120" height="60" as="geometry" />
        </mxCell>
        <mxCell id="nDq_KjHqGvG9ko2mTiTP-157" style="edgeStyle=none;rounded=0;orthogonalLoop=1;jettySize=auto;html=1;entryX=0.509;entryY=1;entryDx=0;entryDy=0;entryPerimeter=0;dashed=1;strokeColor=#FF0000;strokeWidth=1;startArrow=none;startFill=0;endArrow=classic;endFill=1;" edge="1" parent="1" source="nDq_KjHqGvG9ko2mTiTP-2" target="nDq_KjHqGvG9ko2mTiTP-156">
          <mxGeometry relative="1" as="geometry" />
        </mxCell>
        <mxCell id="nDq_KjHqGvG9ko2mTiTP-2" value="" style="shape=umlActor;verticalLabelPosition=bottom;verticalAlign=top;html=1;outlineConnect=0;" vertex="1" parent="1">
          <mxGeometry x="160" y="511" width="30" height="60" as="geometry" />
        </mxCell>
        <mxCell id="nDq_KjHqGvG9ko2mTiTP-3" value="" style="shape=umlActor;verticalLabelPosition=bottom;verticalAlign=top;html=1;outlineConnect=0;" vertex="1" parent="1">
          <mxGeometry x="170" y="531" width="30" height="60" as="geometry" />
        </mxCell>
        <mxCell id="nDq_KjHqGvG9ko2mTiTP-13" style="rounded=0;orthogonalLoop=1;jettySize=auto;html=1;entryX=0;entryY=0.5;entryDx=0;entryDy=0;" edge="1" parent="1" source="nDq_KjHqGvG9ko2mTiTP-4" target="nDq_KjHqGvG9ko2mTiTP-1">
          <mxGeometry relative="1" as="geometry" />
        </mxCell>
        <mxCell id="nDq_KjHqGvG9ko2mTiTP-14" style="edgeStyle=none;rounded=0;orthogonalLoop=1;jettySize=auto;html=1;entryX=0;entryY=0.5;entryDx=0;entryDy=0;" edge="1" parent="1" source="nDq_KjHqGvG9ko2mTiTP-4" target="nDq_KjHqGvG9ko2mTiTP-7">
          <mxGeometry relative="1" as="geometry" />
        </mxCell>
        <mxCell id="nDq_KjHqGvG9ko2mTiTP-15" style="edgeStyle=none;rounded=0;orthogonalLoop=1;jettySize=auto;html=1;entryX=0;entryY=0.5;entryDx=0;entryDy=0;" edge="1" parent="1" source="nDq_KjHqGvG9ko2mTiTP-4" target="nDq_KjHqGvG9ko2mTiTP-5">
          <mxGeometry relative="1" as="geometry" />
        </mxCell>
        <mxCell id="nDq_KjHqGvG9ko2mTiTP-16" style="edgeStyle=none;rounded=0;orthogonalLoop=1;jettySize=auto;html=1;entryX=0;entryY=0.5;entryDx=0;entryDy=0;" edge="1" parent="1" source="nDq_KjHqGvG9ko2mTiTP-4" target="nDq_KjHqGvG9ko2mTiTP-6">
          <mxGeometry relative="1" as="geometry" />
        </mxCell>
        <mxCell id="nDq_KjHqGvG9ko2mTiTP-4" value="" style="shape=umlActor;verticalLabelPosition=bottom;verticalAlign=top;html=1;outlineConnect=0;" vertex="1" parent="1">
          <mxGeometry x="190" y="511" width="30" height="60" as="geometry" />
        </mxCell>
        <mxCell id="nDq_KjHqGvG9ko2mTiTP-18" style="edgeStyle=none;rounded=0;orthogonalLoop=1;jettySize=auto;html=1;dashed=1;" edge="1" parent="1" source="nDq_KjHqGvG9ko2mTiTP-5" target="nDq_KjHqGvG9ko2mTiTP-10">
          <mxGeometry relative="1" as="geometry" />
        </mxCell>
        <mxCell id="nDq_KjHqGvG9ko2mTiTP-5" value="HA &lt;br&gt;(gitlab, vault, rancher)" style="rounded=1;whiteSpace=wrap;html=1;fillColor=#fff2cc;strokeColor=#d6b656;" vertex="1" parent="1">
          <mxGeometry x="438" y="570" width="120" height="60" as="geometry" />
        </mxCell>
        <mxCell id="nDq_KjHqGvG9ko2mTiTP-17" style="edgeStyle=none;rounded=0;orthogonalLoop=1;jettySize=auto;html=1;entryX=0;entryY=0.5;entryDx=0;entryDy=0;dashed=1;" edge="1" parent="1" source="nDq_KjHqGvG9ko2mTiTP-6" target="nDq_KjHqGvG9ko2mTiTP-9">
          <mxGeometry relative="1" as="geometry" />
        </mxCell>
        <mxCell id="nDq_KjHqGvG9ko2mTiTP-6" value="Operation Platform&lt;br&gt;(Team)" style="rounded=1;whiteSpace=wrap;html=1;fillColor=#d5e8d4;strokeColor=#82b366;" vertex="1" parent="1">
          <mxGeometry x="438" y="710" width="120" height="60" as="geometry" />
        </mxCell>
        <mxCell id="nDq_KjHqGvG9ko2mTiTP-19" style="edgeStyle=none;rounded=0;orthogonalLoop=1;jettySize=auto;html=1;entryX=0;entryY=0.5;entryDx=0;entryDy=0;dashed=1;" edge="1" parent="1" source="nDq_KjHqGvG9ko2mTiTP-7" target="nDq_KjHqGvG9ko2mTiTP-11">
          <mxGeometry relative="1" as="geometry" />
        </mxCell>
        <mxCell id="nDq_KjHqGvG9ko2mTiTP-7" value="Observability (Prediction)" style="rounded=1;whiteSpace=wrap;html=1;fillColor=#ffe6cc;strokeColor=#d79b00;" vertex="1" parent="1">
          <mxGeometry x="438" y="430" width="120" height="60" as="geometry" />
        </mxCell>
        <mxCell id="nDq_KjHqGvG9ko2mTiTP-46" style="edgeStyle=none;rounded=0;orthogonalLoop=1;jettySize=auto;html=1;entryX=0;entryY=0.5;entryDx=0;entryDy=0;dashed=1;" edge="1" parent="1" source="nDq_KjHqGvG9ko2mTiTP-9" target="nDq_KjHqGvG9ko2mTiTP-42">
          <mxGeometry relative="1" as="geometry" />
        </mxCell>
        <mxCell id="nDq_KjHqGvG9ko2mTiTP-9" value="" style="shape=image;html=1;verticalAlign=top;verticalLabelPosition=bottom;labelBackgroundColor=#ffffff;imageAspect=0;aspect=fixed;image=https://cdn1.iconfinder.com/data/icons/iconoir-vol-3/24/priority-up-128.png;imageBackground=#66FFB3;fillStyle=auto;" vertex="1" parent="1">
          <mxGeometry x="715" y="703" width="74" height="74" as="geometry" />
        </mxCell>
        <mxCell id="nDq_KjHqGvG9ko2mTiTP-45" style="edgeStyle=none;rounded=0;orthogonalLoop=1;jettySize=auto;html=1;entryX=0;entryY=0.5;entryDx=0;entryDy=0;dashed=1;startArrow=none;" edge="1" parent="1" source="nDq_KjHqGvG9ko2mTiTP-138" target="nDq_KjHqGvG9ko2mTiTP-41">
          <mxGeometry relative="1" as="geometry" />
        </mxCell>
        <mxCell id="nDq_KjHqGvG9ko2mTiTP-10" value="" style="shape=image;html=1;verticalAlign=top;verticalLabelPosition=bottom;labelBackgroundColor=#ffffff;imageAspect=0;aspect=fixed;image=https://cdn1.iconfinder.com/data/icons/iconoir-vol-3/24/priority-up-128.png;imageBackground=#FFFF99;" vertex="1" parent="1">
          <mxGeometry x="715" y="563" width="74" height="74" as="geometry" />
        </mxCell>
        <mxCell id="nDq_KjHqGvG9ko2mTiTP-44" style="edgeStyle=none;rounded=0;orthogonalLoop=1;jettySize=auto;html=1;entryX=0;entryY=0.5;entryDx=0;entryDy=0;dashed=1;" edge="1" parent="1" source="nDq_KjHqGvG9ko2mTiTP-11" target="nDq_KjHqGvG9ko2mTiTP-40">
          <mxGeometry relative="1" as="geometry" />
        </mxCell>
        <mxCell id="nDq_KjHqGvG9ko2mTiTP-11" value="" style="shape=image;html=1;verticalAlign=top;verticalLabelPosition=bottom;labelBackgroundColor=#ffffff;imageAspect=0;aspect=fixed;image=https://cdn1.iconfinder.com/data/icons/iconoir-vol-3/24/priority-up-128.png;imageBackground=#FFCC99;" vertex="1" parent="1">
          <mxGeometry x="715" y="423" width="74" height="74" as="geometry" />
        </mxCell>
        <mxCell id="nDq_KjHqGvG9ko2mTiTP-43" style="edgeStyle=none;rounded=0;orthogonalLoop=1;jettySize=auto;html=1;entryX=0;entryY=0.5;entryDx=0;entryDy=0;dashed=1;" edge="1" parent="1" source="nDq_KjHqGvG9ko2mTiTP-12" target="nDq_KjHqGvG9ko2mTiTP-38">
          <mxGeometry relative="1" as="geometry" />
        </mxCell>
        <mxCell id="nDq_KjHqGvG9ko2mTiTP-12" value="" style="shape=image;html=1;verticalAlign=top;verticalLabelPosition=bottom;labelBackgroundColor=#ffffff;imageAspect=0;aspect=fixed;image=https://cdn1.iconfinder.com/data/icons/iconoir-vol-3/24/priority-up-128.png;imageBackground=#FF9999;" vertex="1" parent="1">
          <mxGeometry x="715" y="283" width="74" height="74" as="geometry" />
        </mxCell>
        <mxCell id="nDq_KjHqGvG9ko2mTiTP-21" value="" style="fillColor=#d5e8d4;rounded=0;strokeColor=#82b366;fillStyle=auto;" vertex="1" parent="1">
          <mxGeometry x="965" y="190" width="840" height="30" as="geometry" />
        </mxCell>
        <mxCell id="nDq_KjHqGvG9ko2mTiTP-22" value="MAR&lt;br&gt;FY23Q1" style="shape=mxgraph.infographic.ribbonSimple;notch1=0;notch2=10;notch=0;html=1;fillColor=#10739E;strokeColor=none;shadow=0;fontSize=17;fontColor=#FFFFFF;align=center;spacingLeft=10;fontStyle=1;fillStyle=auto;" vertex="1" parent="1">
          <mxGeometry x="1005" y="180" width="120" height="50" as="geometry" />
        </mxCell>
        <mxCell id="nDq_KjHqGvG9ko2mTiTP-52" style="edgeStyle=none;rounded=0;orthogonalLoop=1;jettySize=auto;html=1;entryX=0;entryY=0;entryDx=75;entryDy=90;entryPerimeter=0;dashed=1;exitX=1;exitY=0;exitDx=0;exitDy=0;" edge="1" parent="1" source="nDq_KjHqGvG9ko2mTiTP-128" target="nDq_KjHqGvG9ko2mTiTP-49">
          <mxGeometry relative="1" as="geometry" />
        </mxCell>
        <mxCell id="nDq_KjHqGvG9ko2mTiTP-23" value="&lt;div style=&quot;text-align: center;&quot;&gt;&lt;span style=&quot;background-color: initial;&quot;&gt;APR&lt;/span&gt;&lt;/div&gt;FY23Q2&amp;nbsp;" style="shape=mxgraph.infographic.ribbonSimple;notch1=0;notch2=10;notch=0;html=1;fillColor=#F2931E;strokeColor=none;shadow=0;fontSize=17;fontColor=#FFFFFF;align=left;spacingLeft=10;fontStyle=1;fillStyle=auto;" vertex="1" parent="1">
          <mxGeometry x="1165" y="180" width="120" height="50" as="geometry" />
        </mxCell>
        <mxCell id="nDq_KjHqGvG9ko2mTiTP-24" value="MAY&lt;br&gt;FY23Q2&amp;nbsp;" style="shape=mxgraph.infographic.ribbonSimple;notch1=0;notch2=10;notch=0;html=1;fillColor=#AE4132;strokeColor=none;shadow=0;fontSize=17;fontColor=#FFFFFF;align=center;spacingLeft=10;fontStyle=1;fillStyle=auto;" vertex="1" parent="1">
          <mxGeometry x="1325" y="180" width="120" height="50" as="geometry" />
        </mxCell>
        <mxCell id="nDq_KjHqGvG9ko2mTiTP-53" style="edgeStyle=none;rounded=0;orthogonalLoop=1;jettySize=auto;html=1;entryX=0;entryY=0;entryDx=75;entryDy=90;entryPerimeter=0;dashed=1;exitX=0;exitY=0;exitDx=0;exitDy=0;" edge="1" parent="1" source="nDq_KjHqGvG9ko2mTiTP-41" target="nDq_KjHqGvG9ko2mTiTP-50">
          <mxGeometry relative="1" as="geometry" />
        </mxCell>
        <mxCell id="nDq_KjHqGvG9ko2mTiTP-25" value="JUN&lt;br&gt;FY23Q2" style="shape=mxgraph.infographic.ribbonSimple;notch1=0;notch2=10;notch=0;html=1;fillColor=#23445D;strokeColor=none;shadow=0;fontSize=17;fontColor=#FFFFFF;align=center;spacingLeft=10;fontStyle=1;fillStyle=auto;" vertex="1" parent="1">
          <mxGeometry x="1485" y="180" width="120" height="50" as="geometry" />
        </mxCell>
        <mxCell id="nDq_KjHqGvG9ko2mTiTP-54" style="edgeStyle=none;rounded=0;orthogonalLoop=1;jettySize=auto;html=1;entryX=0;entryY=0;entryDx=75;entryDy=90;entryPerimeter=0;dashed=1;exitX=0;exitY=0;exitDx=0;exitDy=0;" edge="1" parent="1" source="nDq_KjHqGvG9ko2mTiTP-42" target="nDq_KjHqGvG9ko2mTiTP-51">
          <mxGeometry relative="1" as="geometry" />
        </mxCell>
        <mxCell id="nDq_KjHqGvG9ko2mTiTP-26" value="JUL&lt;br&gt;FY23Q2" style="shape=mxgraph.infographic.ribbonSimple;notch1=0;notch2=10;notch=0;html=1;fillColor=#12AAB5;strokeColor=none;shadow=0;fontSize=17;fontColor=#FFFFFF;align=center;spacingLeft=10;fontStyle=1;fillStyle=auto;" vertex="1" parent="1">
          <mxGeometry x="1645" y="180" width="120" height="50" as="geometry" />
        </mxCell>
        <mxCell id="nDq_KjHqGvG9ko2mTiTP-37" value="" style="endArrow=classic;dashed=1;html=1;dashPattern=1 3;strokeWidth=2;rounded=0;strokeColor=#FF0000;endFill=1;" edge="1" parent="1">
          <mxGeometry width="50" height="50" relative="1" as="geometry">
            <mxPoint x="1704.5" y="880" as="sourcePoint" />
            <mxPoint x="1704.5" y="230" as="targetPoint" />
          </mxGeometry>
        </mxCell>
        <mxCell id="nDq_KjHqGvG9ko2mTiTP-82" style="edgeStyle=none;rounded=0;orthogonalLoop=1;jettySize=auto;html=1;entryX=0;entryY=0.5;entryDx=0;entryDy=0;dashed=1;" edge="1" parent="1" source="nDq_KjHqGvG9ko2mTiTP-38" target="nDq_KjHqGvG9ko2mTiTP-79">
          <mxGeometry relative="1" as="geometry" />
        </mxCell>
        <mxCell id="nDq_KjHqGvG9ko2mTiTP-38" value="" style="shape=image;html=1;verticalAlign=top;verticalLabelPosition=bottom;labelBackgroundColor=#ffffff;imageAspect=0;aspect=fixed;image=https://cdn4.iconfinder.com/data/icons/for-your-interface-free-samples/128/Pointer-128.png;fillStyle=auto;imageBackground=#FF3333;" vertex="1" parent="1">
          <mxGeometry x="1040" y="295" width="50" height="50" as="geometry" />
        </mxCell>
        <mxCell id="nDq_KjHqGvG9ko2mTiTP-129" style="edgeStyle=none;rounded=0;orthogonalLoop=1;jettySize=auto;html=1;entryX=0;entryY=0.5;entryDx=0;entryDy=0;dashed=1;strokeColor=#000000;strokeWidth=1;" edge="1" parent="1" source="nDq_KjHqGvG9ko2mTiTP-40" target="nDq_KjHqGvG9ko2mTiTP-128">
          <mxGeometry relative="1" as="geometry" />
        </mxCell>
        <mxCell id="nDq_KjHqGvG9ko2mTiTP-40" value="" style="shape=image;html=1;verticalAlign=top;verticalLabelPosition=bottom;labelBackgroundColor=#ffffff;imageAspect=0;aspect=fixed;image=https://cdn4.iconfinder.com/data/icons/for-your-interface-free-samples/128/Pointer-128.png;fillStyle=auto;imageBackground=#FF9933;" vertex="1" parent="1">
          <mxGeometry x="1195" y="435" width="50" height="50" as="geometry" />
        </mxCell>
        <mxCell id="nDq_KjHqGvG9ko2mTiTP-41" value="" style="shape=image;html=1;verticalAlign=top;verticalLabelPosition=bottom;labelBackgroundColor=#ffffff;imageAspect=0;aspect=fixed;image=https://cdn4.iconfinder.com/data/icons/for-your-interface-free-samples/128/Pointer-128.png;fillStyle=auto;imageBackground=#FFFF33;" vertex="1" parent="1">
          <mxGeometry x="1515" y="575" width="50" height="50" as="geometry" />
        </mxCell>
        <mxCell id="nDq_KjHqGvG9ko2mTiTP-42" value="" style="shape=image;html=1;verticalAlign=top;verticalLabelPosition=bottom;labelBackgroundColor=#ffffff;imageAspect=0;aspect=fixed;image=https://cdn4.iconfinder.com/data/icons/for-your-interface-free-samples/128/Pointer-128.png;fillStyle=auto;imageBackground=#66FF66;" vertex="1" parent="1">
          <mxGeometry x="1675" y="715" width="50" height="50" as="geometry" />
        </mxCell>
        <mxCell id="nDq_KjHqGvG9ko2mTiTP-47" value="&lt;span style=&quot;background-color: initial;&quot;&gt;Be able to handle the similar production issues which happened before&lt;/span&gt;" style="shape=callout;whiteSpace=wrap;html=1;perimeter=calloutPerimeter;fillStyle=auto;align=center;" vertex="1" parent="1">
          <mxGeometry x="1615" y="20" width="150" height="90" as="geometry" />
        </mxCell>
        <mxCell id="nDq_KjHqGvG9ko2mTiTP-49" value="&lt;span style=&quot;background-color: initial;&quot;&gt;Be able to identify if classic eks cluster is healthy or not&lt;/span&gt;" style="shape=callout;whiteSpace=wrap;html=1;perimeter=calloutPerimeter;fillStyle=auto;align=center;" vertex="1" parent="1">
          <mxGeometry x="1805" y="240" width="150" height="90" as="geometry" />
        </mxCell>
        <mxCell id="nDq_KjHqGvG9ko2mTiTP-50" value="&lt;span style=&quot;background-color: initial;&quot;&gt;Be able to resolve single point failure on critical service&lt;/span&gt;" style="shape=callout;whiteSpace=wrap;html=1;perimeter=calloutPerimeter;fillStyle=auto;align=center;" vertex="1" parent="1">
          <mxGeometry x="1715" y="415" width="150" height="90" as="geometry" />
        </mxCell>
        <mxCell id="nDq_KjHqGvG9ko2mTiTP-51" value="&lt;span style=&quot;background-color: initial;&quot;&gt;Be able to operate classic eks through automation by team&lt;/span&gt;" style="shape=callout;whiteSpace=wrap;html=1;perimeter=calloutPerimeter;fillStyle=auto;align=center;" vertex="1" parent="1">
          <mxGeometry x="1740" y="563" width="150" height="90" as="geometry" />
        </mxCell>
        <mxCell id="nDq_KjHqGvG9ko2mTiTP-55" value="" style="shape=umlActor;verticalLabelPosition=bottom;verticalAlign=top;html=1;outlineConnect=0;fillStyle=auto;" vertex="1" parent="1">
          <mxGeometry x="548" y="530" width="30" height="60" as="geometry" />
        </mxCell>
        <mxCell id="nDq_KjHqGvG9ko2mTiTP-56" value="" style="shape=umlActor;verticalLabelPosition=bottom;verticalAlign=top;html=1;outlineConnect=0;fillStyle=auto;" vertex="1" parent="1">
          <mxGeometry x="568" y="530" width="30" height="60" as="geometry" />
        </mxCell>
        <mxCell id="nDq_KjHqGvG9ko2mTiTP-57" value="" style="shape=umlActor;verticalLabelPosition=bottom;verticalAlign=top;html=1;outlineConnect=0;fillStyle=auto;" vertex="1" parent="1">
          <mxGeometry x="548" y="660" width="30" height="60" as="geometry" />
        </mxCell>
        <mxCell id="nDq_KjHqGvG9ko2mTiTP-58" value="" style="shape=umlActor;verticalLabelPosition=bottom;verticalAlign=top;html=1;outlineConnect=0;fillStyle=auto;" vertex="1" parent="1">
          <mxGeometry x="548" y="380" width="30" height="60" as="geometry" />
        </mxCell>
        <mxCell id="nDq_KjHqGvG9ko2mTiTP-59" value="" style="shape=umlActor;verticalLabelPosition=bottom;verticalAlign=top;html=1;outlineConnect=0;fillStyle=auto;" vertex="1" parent="1">
          <mxGeometry x="548" y="240" width="30" height="60" as="geometry" />
        </mxCell>
        <mxCell id="nDq_KjHqGvG9ko2mTiTP-60" value="classic eks team" style="text;html=1;align=center;verticalAlign=middle;resizable=0;points=[];autosize=1;strokeColor=none;fillColor=none;" vertex="1" parent="1">
          <mxGeometry x="125" y="586" width="110" height="30" as="geometry" />
        </mxCell>
        <mxCell id="nDq_KjHqGvG9ko2mTiTP-65" value="Team" style="text;html=1;align=center;verticalAlign=middle;resizable=0;points=[];autosize=1;strokeColor=#FF0000;fillColor=none;" vertex="1" parent="1">
          <mxGeometry x="1710" y="825" width="50" height="30" as="geometry" />
        </mxCell>
        <mxCell id="nDq_KjHqGvG9ko2mTiTP-77" value="" style="sketch=0;aspect=fixed;pointerEvents=1;shadow=0;dashed=0;html=1;strokeColor=none;labelPosition=center;verticalLabelPosition=bottom;verticalAlign=top;align=center;fillColor=#00188D;shape=mxgraph.mscae.enterprise.monitor_running_apps;fillStyle=auto;" vertex="1" parent="1">
          <mxGeometry x="1245" y="401" width="50" height="39" as="geometry" />
        </mxCell>
        <mxCell id="nDq_KjHqGvG9ko2mTiTP-78" value="" style="shape=image;html=1;verticalAlign=top;verticalLabelPosition=bottom;labelBackgroundColor=#ffffff;imageAspect=0;aspect=fixed;image=https://cdn0.iconfinder.com/data/icons/security-double-color-red-and-black-vol-1/52/extinguisher__fire__security__emergency__fighter-128.png;fillStyle=auto;" vertex="1" parent="1">
          <mxGeometry x="1395" y="260" width="50" height="50" as="geometry" />
        </mxCell>
        <mxCell id="nDq_KjHqGvG9ko2mTiTP-83" style="edgeStyle=none;rounded=0;orthogonalLoop=1;jettySize=auto;html=1;entryX=0;entryY=0.5;entryDx=0;entryDy=0;dashed=1;" edge="1" parent="1" source="nDq_KjHqGvG9ko2mTiTP-79" target="nDq_KjHqGvG9ko2mTiTP-81">
          <mxGeometry relative="1" as="geometry" />
        </mxCell>
        <mxCell id="nDq_KjHqGvG9ko2mTiTP-79" value="" style="shape=image;html=1;verticalAlign=top;verticalLabelPosition=bottom;labelBackgroundColor=#ffffff;imageAspect=0;aspect=fixed;image=https://cdn4.iconfinder.com/data/icons/for-your-interface-free-samples/128/Pointer-128.png;fillStyle=auto;imageBackground=#FF3333;" vertex="1" parent="1">
          <mxGeometry x="1195" y="295" width="50" height="50" as="geometry" />
        </mxCell>
        <mxCell id="nDq_KjHqGvG9ko2mTiTP-133" style="edgeStyle=none;rounded=0;orthogonalLoop=1;jettySize=auto;html=1;entryX=0;entryY=0.5;entryDx=0;entryDy=0;dashed=1;strokeColor=#000000;strokeWidth=1;" edge="1" parent="1" source="nDq_KjHqGvG9ko2mTiTP-81" target="nDq_KjHqGvG9ko2mTiTP-131">
          <mxGeometry relative="1" as="geometry" />
        </mxCell>
        <mxCell id="nDq_KjHqGvG9ko2mTiTP-81" value="" style="shape=image;html=1;verticalAlign=top;verticalLabelPosition=bottom;labelBackgroundColor=#ffffff;imageAspect=0;aspect=fixed;image=https://cdn4.iconfinder.com/data/icons/for-your-interface-free-samples/128/Pointer-128.png;fillStyle=auto;imageBackground=#FF3333;" vertex="1" parent="1">
          <mxGeometry x="1355" y="295" width="50" height="50" as="geometry" />
        </mxCell>
        <mxCell id="nDq_KjHqGvG9ko2mTiTP-84" value="" style="shape=image;html=1;verticalAlign=top;verticalLabelPosition=bottom;labelBackgroundColor=#ffffff;imageAspect=0;aspect=fixed;image=https://cdn0.iconfinder.com/data/icons/security-double-color-red-and-black-vol-1/52/extinguisher__fire__security__emergency__fighter-128.png;fillStyle=auto;imageBackground=default;" vertex="1" parent="1">
          <mxGeometry x="1235" y="250" width="50" height="50" as="geometry" />
        </mxCell>
        <mxCell id="nDq_KjHqGvG9ko2mTiTP-86" value="" style="shape=image;html=1;verticalAlign=top;verticalLabelPosition=bottom;labelBackgroundColor=#ffffff;imageAspect=0;aspect=fixed;image=https://cdn3.iconfinder.com/data/icons/geosm-e-commerce/48/logs-2-128.png;fillStyle=auto;" vertex="1" parent="1">
          <mxGeometry x="1075" y="260" width="50" height="50" as="geometry" />
        </mxCell>
        <mxCell id="nDq_KjHqGvG9ko2mTiTP-88" value="" style="shape=image;html=1;verticalAlign=top;verticalLabelPosition=bottom;labelBackgroundColor=#ffffff;imageAspect=0;aspect=fixed;image=https://cdn0.iconfinder.com/data/icons/gcons-2/32/balance-128.png;fillStyle=auto;" vertex="1" parent="1">
          <mxGeometry x="1565" y="540" width="50" height="50" as="geometry" />
        </mxCell>
        <mxCell id="nDq_KjHqGvG9ko2mTiTP-97" value="" style="group;fillColor=#CCFFCC;" vertex="1" connectable="0" parent="1">
          <mxGeometry x="1105" y="705" width="70" height="60" as="geometry" />
        </mxCell>
        <mxCell id="nDq_KjHqGvG9ko2mTiTP-91" value="" style="shape=document;whiteSpace=wrap;html=1;boundedLbl=1;fillStyle=auto;" vertex="1" parent="nDq_KjHqGvG9ko2mTiTP-97">
          <mxGeometry y="20" width="50" height="40" as="geometry" />
        </mxCell>
        <mxCell id="nDq_KjHqGvG9ko2mTiTP-96" value="" style="sketch=0;outlineConnect=0;fontColor=#232F3E;gradientColor=none;strokeColor=#232F3E;fillColor=#ffffff;dashed=0;verticalLabelPosition=bottom;verticalAlign=top;align=center;html=1;fontSize=12;fontStyle=0;aspect=fixed;shape=mxgraph.aws4.resourceIcon;resIcon=mxgraph.aws4.automation;fillStyle=auto;" vertex="1" parent="nDq_KjHqGvG9ko2mTiTP-97">
          <mxGeometry x="20" width="50" height="50" as="geometry" />
        </mxCell>
        <mxCell id="nDq_KjHqGvG9ko2mTiTP-98" value="" style="group;fillColor=#99FF99;" vertex="1" connectable="0" parent="1">
          <mxGeometry x="1275" y="710" width="70" height="60" as="geometry" />
        </mxCell>
        <mxCell id="nDq_KjHqGvG9ko2mTiTP-99" value="" style="shape=document;whiteSpace=wrap;html=1;boundedLbl=1;fillStyle=auto;" vertex="1" parent="nDq_KjHqGvG9ko2mTiTP-98">
          <mxGeometry y="20" width="50" height="40" as="geometry" />
        </mxCell>
        <mxCell id="nDq_KjHqGvG9ko2mTiTP-100" value="" style="sketch=0;outlineConnect=0;fontColor=#232F3E;gradientColor=none;strokeColor=#232F3E;fillColor=#ffffff;dashed=0;verticalLabelPosition=bottom;verticalAlign=top;align=center;html=1;fontSize=12;fontStyle=0;aspect=fixed;shape=mxgraph.aws4.resourceIcon;resIcon=mxgraph.aws4.automation;fillStyle=auto;" vertex="1" parent="nDq_KjHqGvG9ko2mTiTP-98">
          <mxGeometry x="20" width="50" height="50" as="geometry" />
        </mxCell>
        <mxCell id="nDq_KjHqGvG9ko2mTiTP-101" value="" style="group;fillColor=#66FF66;" vertex="1" connectable="0" parent="1">
          <mxGeometry x="1435" y="705" width="70" height="60" as="geometry" />
        </mxCell>
        <mxCell id="nDq_KjHqGvG9ko2mTiTP-102" value="" style="shape=document;whiteSpace=wrap;html=1;boundedLbl=1;fillStyle=auto;" vertex="1" parent="nDq_KjHqGvG9ko2mTiTP-101">
          <mxGeometry y="20" width="50" height="40" as="geometry" />
        </mxCell>
        <mxCell id="nDq_KjHqGvG9ko2mTiTP-103" value="" style="sketch=0;outlineConnect=0;fontColor=#232F3E;gradientColor=none;strokeColor=#232F3E;fillColor=#ffffff;dashed=0;verticalLabelPosition=bottom;verticalAlign=top;align=center;html=1;fontSize=12;fontStyle=0;aspect=fixed;shape=mxgraph.aws4.resourceIcon;resIcon=mxgraph.aws4.automation;fillStyle=auto;" vertex="1" parent="nDq_KjHqGvG9ko2mTiTP-101">
          <mxGeometry x="20" width="50" height="50" as="geometry" />
        </mxCell>
        <mxCell id="nDq_KjHqGvG9ko2mTiTP-104" value="" style="group;fillColor=#33FF33;" vertex="1" connectable="0" parent="1">
          <mxGeometry x="1575" y="705" width="70" height="60" as="geometry" />
        </mxCell>
        <mxCell id="nDq_KjHqGvG9ko2mTiTP-105" value="" style="shape=document;whiteSpace=wrap;html=1;boundedLbl=1;fillStyle=auto;" vertex="1" parent="nDq_KjHqGvG9ko2mTiTP-104">
          <mxGeometry y="20" width="50" height="40" as="geometry" />
        </mxCell>
        <mxCell id="nDq_KjHqGvG9ko2mTiTP-106" value="" style="sketch=0;outlineConnect=0;fontColor=#232F3E;gradientColor=none;strokeColor=#232F3E;fillColor=#ffffff;dashed=0;verticalLabelPosition=bottom;verticalAlign=top;align=center;html=1;fontSize=12;fontStyle=0;aspect=fixed;shape=mxgraph.aws4.resourceIcon;resIcon=mxgraph.aws4.automation;fillStyle=auto;" vertex="1" parent="nDq_KjHqGvG9ko2mTiTP-104">
          <mxGeometry x="20" width="50" height="50" as="geometry" />
        </mxCell>
        <mxCell id="nDq_KjHqGvG9ko2mTiTP-107" style="edgeStyle=none;rounded=0;orthogonalLoop=1;jettySize=auto;html=1;entryX=0;entryY=0.5;entryDx=0;entryDy=0;dashed=1;" edge="1" parent="1" source="nDq_KjHqGvG9ko2mTiTP-96" target="nDq_KjHqGvG9ko2mTiTP-99">
          <mxGeometry relative="1" as="geometry" />
        </mxCell>
        <mxCell id="nDq_KjHqGvG9ko2mTiTP-108" style="edgeStyle=none;rounded=0;orthogonalLoop=1;jettySize=auto;html=1;entryX=0;entryY=0.5;entryDx=0;entryDy=0;dashed=1;" edge="1" parent="1" source="nDq_KjHqGvG9ko2mTiTP-100" target="nDq_KjHqGvG9ko2mTiTP-102">
          <mxGeometry relative="1" as="geometry" />
        </mxCell>
        <mxCell id="nDq_KjHqGvG9ko2mTiTP-109" style="edgeStyle=none;rounded=0;orthogonalLoop=1;jettySize=auto;html=1;entryX=0;entryY=0.5;entryDx=0;entryDy=0;dashed=1;" edge="1" parent="1" source="nDq_KjHqGvG9ko2mTiTP-103" target="nDq_KjHqGvG9ko2mTiTP-105">
          <mxGeometry relative="1" as="geometry" />
        </mxCell>
        <mxCell id="nDq_KjHqGvG9ko2mTiTP-120" value="" style="shape=image;html=1;verticalAlign=top;verticalLabelPosition=bottom;labelBackgroundColor=#ffffff;imageAspect=0;aspect=fixed;image=https://cdn2.iconfinder.com/data/icons/web-development-and-studio/512/653_Company_employee_group_people_team-128.png;fillStyle=auto;fillColor=#00CC00;" vertex="1" parent="1">
          <mxGeometry x="1715" y="680" width="50" height="50" as="geometry" />
        </mxCell>
        <mxCell id="nDq_KjHqGvG9ko2mTiTP-122" value="" style="endArrow=classic;html=1;rounded=0;dashed=1;strokeColor=#006600;strokeWidth=2;" edge="1" parent="1">
          <mxGeometry relative="1" as="geometry">
            <mxPoint x="845" y="202.13" as="sourcePoint" />
            <mxPoint x="1915" y="207.88" as="targetPoint" />
          </mxGeometry>
        </mxCell>
        <mxCell id="nDq_KjHqGvG9ko2mTiTP-123" value="" style="edgeLabel;resizable=0;html=1;align=center;verticalAlign=middle;fillStyle=auto;fillColor=#00CC00;" connectable="0" vertex="1" parent="nDq_KjHqGvG9ko2mTiTP-122">
          <mxGeometry relative="1" as="geometry" />
        </mxCell>
        <mxCell id="nDq_KjHqGvG9ko2mTiTP-124" value="" style="edgeLabel;resizable=0;html=1;align=left;verticalAlign=bottom;fillStyle=auto;fillColor=#00CC00;" connectable="0" vertex="1" parent="nDq_KjHqGvG9ko2mTiTP-122">
          <mxGeometry x="-1" relative="1" as="geometry" />
        </mxCell>
        <mxCell id="nDq_KjHqGvG9ko2mTiTP-127" value="" style="shape=image;html=1;verticalAlign=top;verticalLabelPosition=bottom;labelBackgroundColor=#ffffff;imageAspect=0;aspect=fixed;image=https://cdn1.iconfinder.com/data/icons/ui-essential-17/32/UI_Essential_Outline_1_essential-app-ui-sound-speaker-128.png;fillStyle=auto;fillColor=#00CC00;" vertex="1" parent="1">
          <mxGeometry x="1395" y="395.5" width="50" height="50" as="geometry" />
        </mxCell>
        <mxCell id="nDq_KjHqGvG9ko2mTiTP-132" style="edgeStyle=none;rounded=0;orthogonalLoop=1;jettySize=auto;html=1;entryX=0;entryY=0.5;entryDx=0;entryDy=0;dashed=1;strokeColor=#000000;strokeWidth=1;" edge="1" parent="1" source="nDq_KjHqGvG9ko2mTiTP-128" target="nDq_KjHqGvG9ko2mTiTP-131">
          <mxGeometry relative="1" as="geometry" />
        </mxCell>
        <mxCell id="nDq_KjHqGvG9ko2mTiTP-128" value="" style="shape=image;html=1;verticalAlign=top;verticalLabelPosition=bottom;labelBackgroundColor=#ffffff;imageAspect=0;aspect=fixed;image=https://cdn4.iconfinder.com/data/icons/for-your-interface-free-samples/128/Pointer-128.png;fillStyle=auto;imageBackground=#FF9933;" vertex="1" parent="1">
          <mxGeometry x="1359" y="436" width="50" height="50" as="geometry" />
        </mxCell>
        <mxCell id="nDq_KjHqGvG9ko2mTiTP-130" value="" style="shape=image;html=1;verticalAlign=top;verticalLabelPosition=bottom;labelBackgroundColor=#ffffff;imageAspect=0;aspect=fixed;image=https://cdn2.iconfinder.com/data/icons/whcompare-servers-web-hosting/50/24-7-live-support-128.png;fillStyle=auto;fillColor=#00CC00;" vertex="1" parent="1">
          <mxGeometry x="1555" y="250" width="50" height="50" as="geometry" />
        </mxCell>
        <mxCell id="nDq_KjHqGvG9ko2mTiTP-134" style="edgeStyle=none;rounded=0;orthogonalLoop=1;jettySize=auto;html=1;entryX=0;entryY=0;entryDx=75;entryDy=90;entryPerimeter=0;dashed=1;strokeColor=#000000;strokeWidth=1;" edge="1" parent="1" source="nDq_KjHqGvG9ko2mTiTP-131" target="nDq_KjHqGvG9ko2mTiTP-47">
          <mxGeometry relative="1" as="geometry" />
        </mxCell>
        <mxCell id="nDq_KjHqGvG9ko2mTiTP-131" value="" style="shape=image;html=1;verticalAlign=top;verticalLabelPosition=bottom;labelBackgroundColor=#ffffff;imageAspect=0;aspect=fixed;image=https://cdn4.iconfinder.com/data/icons/for-your-interface-free-samples/128/Pointer-128.png;fillStyle=auto;imageBackground=#FF3333;" vertex="1" parent="1">
          <mxGeometry x="1515" y="295" width="50" height="50" as="geometry" />
        </mxCell>
        <mxCell id="nDq_KjHqGvG9ko2mTiTP-136" value="" style="shape=image;html=1;verticalAlign=top;verticalLabelPosition=bottom;labelBackgroundColor=#ffffff;imageAspect=0;aspect=fixed;image=https://cdn4.iconfinder.com/data/icons/christmas-2434/128/Artboard_42-128.png;fillStyle=auto;fillColor=#00CC00;" vertex="1" parent="1">
          <mxGeometry x="950" y="470" width="50" height="50" as="geometry" />
        </mxCell>
        <mxCell id="nDq_KjHqGvG9ko2mTiTP-146" style="edgeStyle=none;rounded=0;orthogonalLoop=1;jettySize=auto;html=1;entryX=1;entryY=1;entryDx=0;entryDy=0;dashed=1;strokeColor=#000000;strokeWidth=1;" edge="1" parent="1" source="nDq_KjHqGvG9ko2mTiTP-139" target="nDq_KjHqGvG9ko2mTiTP-136">
          <mxGeometry relative="1" as="geometry" />
        </mxCell>
        <mxCell id="nDq_KjHqGvG9ko2mTiTP-139" value="vault" style="ellipse;whiteSpace=wrap;html=1;aspect=fixed;fillStyle=auto;fillColor=#FFFFCC;strokeColor=#FF3333;dashed=1;" vertex="1" parent="1">
          <mxGeometry x="1305" y="575" width="50" height="50" as="geometry" />
        </mxCell>
        <mxCell id="nDq_KjHqGvG9ko2mTiTP-147" style="edgeStyle=none;rounded=0;orthogonalLoop=1;jettySize=auto;html=1;entryX=1;entryY=1;entryDx=0;entryDy=0;dashed=1;strokeColor=#000000;strokeWidth=1;" edge="1" parent="1" source="nDq_KjHqGvG9ko2mTiTP-141" target="nDq_KjHqGvG9ko2mTiTP-136">
          <mxGeometry relative="1" as="geometry" />
        </mxCell>
        <mxCell id="nDq_KjHqGvG9ko2mTiTP-141" value="others" style="ellipse;whiteSpace=wrap;html=1;aspect=fixed;fillStyle=auto;fillColor=#FFFFCC;strokeColor=#FF3333;dashed=1;" vertex="1" parent="1">
          <mxGeometry x="1420" y="580" width="50" height="50" as="geometry" />
        </mxCell>
        <mxCell id="nDq_KjHqGvG9ko2mTiTP-142" value="" style="edgeStyle=none;rounded=0;orthogonalLoop=1;jettySize=auto;html=1;entryX=0;entryY=0.5;entryDx=0;entryDy=0;dashed=1;endArrow=none;startArrow=none;" edge="1" parent="1" source="nDq_KjHqGvG9ko2mTiTP-137" target="nDq_KjHqGvG9ko2mTiTP-138">
          <mxGeometry relative="1" as="geometry">
            <mxPoint x="799" y="600" as="sourcePoint" />
            <mxPoint x="1515" y="600" as="targetPoint" />
          </mxGeometry>
        </mxCell>
        <mxCell id="nDq_KjHqGvG9ko2mTiTP-145" style="edgeStyle=none;rounded=0;orthogonalLoop=1;jettySize=auto;html=1;entryX=1;entryY=1;entryDx=0;entryDy=0;dashed=1;strokeColor=#000000;strokeWidth=1;" edge="1" parent="1" source="nDq_KjHqGvG9ko2mTiTP-138" target="nDq_KjHqGvG9ko2mTiTP-136">
          <mxGeometry relative="1" as="geometry" />
        </mxCell>
        <mxCell id="nDq_KjHqGvG9ko2mTiTP-138" value="gitlab" style="ellipse;whiteSpace=wrap;html=1;aspect=fixed;fillStyle=auto;fillColor=#FFFFCC;strokeColor=#FF3333;dashed=1;" vertex="1" parent="1">
          <mxGeometry x="1225" y="575" width="50" height="50" as="geometry" />
        </mxCell>
        <mxCell id="nDq_KjHqGvG9ko2mTiTP-143" value="" style="edgeStyle=none;rounded=0;orthogonalLoop=1;jettySize=auto;html=1;entryX=0;entryY=0.5;entryDx=0;entryDy=0;dashed=1;endArrow=none;" edge="1" parent="1" source="nDq_KjHqGvG9ko2mTiTP-10" target="nDq_KjHqGvG9ko2mTiTP-137">
          <mxGeometry relative="1" as="geometry">
            <mxPoint x="799" y="600" as="sourcePoint" />
            <mxPoint x="1225" y="595" as="targetPoint" />
          </mxGeometry>
        </mxCell>
        <mxCell id="nDq_KjHqGvG9ko2mTiTP-144" style="edgeStyle=none;rounded=0;orthogonalLoop=1;jettySize=auto;html=1;entryX=1;entryY=1;entryDx=0;entryDy=0;dashed=1;strokeColor=#000000;strokeWidth=1;" edge="1" parent="1" source="nDq_KjHqGvG9ko2mTiTP-137" target="nDq_KjHqGvG9ko2mTiTP-136">
          <mxGeometry relative="1" as="geometry" />
        </mxCell>
        <mxCell id="nDq_KjHqGvG9ko2mTiTP-137" value="rancher" style="ellipse;whiteSpace=wrap;html=1;aspect=fixed;fillStyle=auto;fillColor=#FFFFCC;strokeColor=#FF3333;dashed=1;" vertex="1" parent="1">
          <mxGeometry x="1115" y="575" width="50" height="50" as="geometry" />
        </mxCell>
        <mxCell id="nDq_KjHqGvG9ko2mTiTP-148" value="single service failure" style="text;html=1;align=center;verticalAlign=middle;resizable=0;points=[];autosize=1;strokeColor=none;fillColor=none;" vertex="1" parent="1">
          <mxGeometry x="910" y="520" width="130" height="30" as="geometry" />
        </mxCell>
        <mxCell id="nDq_KjHqGvG9ko2mTiTP-149" value="Priority" style="shape=mxgraph.infographic.ribbonSimple;notch1=0;notch2=10;notch=0;html=1;fillColor=#10739E;strokeColor=none;shadow=0;fontSize=17;fontColor=#FFFFFF;align=center;spacingLeft=10;fontStyle=1;fillStyle=auto;" vertex="1" parent="1">
          <mxGeometry x="692" y="180" width="120" height="50" as="geometry" />
        </mxCell>
        <mxCell id="nDq_KjHqGvG9ko2mTiTP-150" value="" style="endArrow=classic;dashed=1;html=1;dashPattern=1 3;strokeWidth=2;rounded=0;strokeColor=#FF0000;endFill=1;" edge="1" parent="1">
          <mxGeometry width="50" height="50" relative="1" as="geometry">
            <mxPoint x="757" y="900" as="sourcePoint" />
            <mxPoint x="747" y="230" as="targetPoint" />
          </mxGeometry>
        </mxCell>
        <mxCell id="nDq_KjHqGvG9ko2mTiTP-151" value="" style="endArrow=classic;dashed=1;html=1;dashPattern=1 3;strokeWidth=2;rounded=0;strokeColor=#FF0000;endFill=1;" edge="1" parent="1">
          <mxGeometry width="50" height="50" relative="1" as="geometry">
            <mxPoint x="1539.5" y="880" as="sourcePoint" />
            <mxPoint x="1539.5" y="230" as="targetPoint" />
          </mxGeometry>
        </mxCell>
        <mxCell id="nDq_KjHqGvG9ko2mTiTP-152" value="" style="endArrow=classic;dashed=1;html=1;dashPattern=1 3;strokeWidth=2;rounded=0;strokeColor=#FF0000;endFill=1;" edge="1" parent="1">
          <mxGeometry width="50" height="50" relative="1" as="geometry">
            <mxPoint x="1384.5" y="880" as="sourcePoint" />
            <mxPoint x="1384.5" y="230" as="targetPoint" />
          </mxGeometry>
        </mxCell>
        <mxCell id="nDq_KjHqGvG9ko2mTiTP-153" value="" style="endArrow=classic;dashed=1;html=1;dashPattern=1 3;strokeWidth=2;rounded=0;strokeColor=#FF0000;endFill=1;" edge="1" parent="1">
          <mxGeometry width="50" height="50" relative="1" as="geometry">
            <mxPoint x="1219.5" y="880" as="sourcePoint" />
            <mxPoint x="1219.5" y="230" as="targetPoint" />
          </mxGeometry>
        </mxCell>
        <mxCell id="nDq_KjHqGvG9ko2mTiTP-155" value="" style="endArrow=classic;dashed=1;html=1;dashPattern=1 3;strokeWidth=2;rounded=0;strokeColor=#FF0000;endFill=1;" edge="1" parent="1">
          <mxGeometry width="50" height="50" relative="1" as="geometry">
            <mxPoint x="1064.5" y="880" as="sourcePoint" />
            <mxPoint x="1064.5" y="230" as="targetPoint" />
          </mxGeometry>
        </mxCell>
        <mxCell id="nDq_KjHqGvG9ko2mTiTP-156" value="? 3, 4, 5 team members" style="text;html=1;align=center;verticalAlign=middle;resizable=0;points=[];autosize=1;strokeColor=none;fillColor=none;fontSize=25;" vertex="1" parent="1">
          <mxGeometry x="-10" y="370" width="290" height="40" as="geometry" />
        </mxCell>
      </root>
    </mxGraphModel>
  </diagram>
</mxfile>
